<svg xmlns="http://www.w3.org/2000/svg" viewBox="0 0 100 100" role="img" aria-label="Bigfoot favicon">
  <circle cx="22" cy="31" r="11" fill="#223628"/>
  <circle cx="78" cy="31" r="11" fill="#223628"/>
  <path fill="#223628" d="M50 6 59 16 70 10 74 21 86 19 84 32 92 39 86 47 91 58 82 63 84 76 72 77 68 89 56 84 50 94 44 84 32 89 28 77 16 76 18 63 9 58 14 47 8 39 16 32 14 19 26 21 30 10 41 16Z"/>
  <ellipse cx="50" cy="53" rx="29" ry="31" fill="#223628"/>
  <path fill="#f4ead4" d="M50 26c-13.2 0-22.8 9.6-22.8 22.7 0 12.8 9.7 23.6 22.8 23.6s22.8-10.8 22.8-23.6C72.8 35.6 63.2 26 50 26Z"/>
  <path fill="#dcc8a8" d="M50 36c-8.2 0-14.4 6.2-14.4 14.2 0 8 6.1 14.8 14.4 14.8s14.4-6.8 14.4-14.8C64.4 42.2 58.2 36 50 36Z"/>
  <path fill="#223628" d="M26 46c5-6.7 11.2-10.1 18.5-10.1H55c7.3 0 13.5 3.4 18.5 10.1-3.5-10.7-11.7-17.3-23.5-17.3S29.5 35.3 26 46Z"/>
  <ellipse cx="41" cy="49" rx="4" ry="5" fill="#162319"/>
  <ellipse cx="59" cy="49" rx="4" ry="5" fill="#162319"/>
  <ellipse cx="50" cy="58" rx="7.5" ry="5.7" fill="#6b4a32"/>
  <ellipse cx="47.5" cy="56.6" rx="1.1" ry="0.9" fill="#2b2018"/>
  <ellipse cx="52.5" cy="56.6" rx="1.1" ry="0.9" fill="#2b2018"/>
  <path d="M44.5 65c1.7 2.4 3.6 3.5 5.5 3.5s3.8-1.1 5.5-3.5" fill="none" stroke="#6b4a32" stroke-linecap="round" stroke-width="3"/>
  <path d="M34 67c4.6 7.9 9.8 11.8 16 11.8S61.4 74.9 66 67" fill="none" stroke="#223628" stroke-linecap="round" stroke-width="7"/>
</svg>
